<svg width="800" height="600" xmlns="http://www.w3.org/2000/svg" version="1.1" preserveAspectRatio="none">

 <!---->
 <g>
  <title>Layer 1</title>
  <g id="background">
   <!---->
   <!---->
  </g>
  <g transform="translate(40 234.468) scale(1 1)" id="shape_AjwXCJgVSQ">
   <g id="svg_5">
    <rect id="svg_6" y="-10" x="-10" height="119.76271" width="179.7231" fill="rgba(0,0,0,0)"/>
    <g id="svg_2">
     <svg data-parent="shape_AjwXCJgVSQ" class="style-removed" preserveAspectRatio="none" xml:space="preserve" enable-background="new 0 0 200 200" viewBox="10.189589500427246 43.904483795166016 179.6204071044922 112.19052124023438" height="99.76271" width="159.7231" y="0px" x="0px" id="svg_1" version="1.1" xmlns:xlink="http://www.w3.org/1999/xlink" xmlns="http://www.w3.org/2000/svg">
      <g id="svg_7">
       <path id="svg_8" stroke-width="0" d="m106.321,89.494c0,0 21.712,-23.689 49.111,-19.623c20.564,3.052 29.926,14.137 34.378,20.14l-13.44,0c0,0 -9.943,-9.084 -23.78,-10.899c-12.577,-1.65 -22.747,-0.991 -46.269,10.382z" fill="#246fdd"/>
       <path id="svg_9" stroke-width="0" d="m147.161,71.716c0,0 -5.801,-22.574 -33.028,-27.054s-52.213,11.258 -70.823,38.025l22.517,-4.021c0,0 19.354,-29.195 47.101,-24.24c16.083,2.872 24.699,10.109 27.916,18.496l6.317,-1.206z" fill="#246fdd"/>
       <path id="svg_10" stroke-width="0" d="m62.38,83.893c0,0 -46.698,7.782 -51.696,38.255c-4.136,25.216 18.611,33.947 33.43,33.947c18.036,0 112.698,0 112.698,0l1.206,-5.687c0,0 -71.397,0.324 -101.38,0c-15.968,-0.172 -28.147,-4.996 -28.147,-22.574c0,-14.992 12.867,-26.502 29.065,-32.034l4.824,-11.907z" fill="#24dd7f"/>
      </g>
     </svg>
    </g>
   </g>
  </g>
  <g transform="translate(22.558 97.9906) scale(1 1)" id="shape_W7YDZ35Q8m">
   <g id="svg_3">
    <svg id="svg_11" data-parent="shape_W7YDZ35Q8m" viewBox="0 0 398.3109845760922 405.87219999999996" height="405.8722" width="398.31098" version="1.1" xmlns:xlink="http://www.w3.org/1999/xlink" xmlns="http://www.w3.org/2000/svg">
     <rect id="svg_12" y="174.4361" x="57.9" height="57" width="166.71098" fill="rgba(0,0,0,0)"/>
     <g id="svg_13" data-width="166.1151">
      <path id="svg_14" data-glyph-descender="-8.1639" data-glyph-ascender="49.7361" data-glyph-h="57.9" data-glyph-w="36.8244" stroke-width="0.096" stroke="#246fdd" fill="#246fdd" transform="skewX(-14)" d="m125.24888,200.6261l23.04,0l0,6.89l-23.04,0l0,15.92l-8.17,0l0,-20.15q0.06,-8.68 1.63,-11.41l0,0q1.96,-3.82 5.7,-5.44q3.73,-1.62 10.51,-1.62l0,0l13.37,0l0,6.89l-12.33,0q-5.73,0.12 -7.35,0.93l0,0q-3.25,1.33 -3.36,5.9l0,0l0,2.09z"/>
      <path id="svg_15" data-glyph-descender="-8.1639" data-glyph-ascender="49.7361" data-glyph-h="57.9" data-glyph-w="35.4348" stroke-width="0.096" stroke="#246fdd" fill="#246fdd" transform="skewX(-14)" d="m169.48328,184.8161l13.84,0l0,6.89l-10.71,0q-4.17,0 -6.08,0.58q-1.91,0.58 -3.19,2.26l0,0q-0.87,1.16 -1.19,2.31q-0.31,1.16 -0.55,3.94l0,0l21.72,0l0,6.89l-21.72,0q0.47,4.98 2.96,6.92q2.49,1.94 8.45,1.94l0,0l10.31,0l0,6.89l-10.71,0q-4.35,0 -7.65,-0.52l0,0q-5.21,-0.87 -8.28,-4.58l0,0q-4.4,-5.32 -4.4,-14.41l0,0q0,-10.08 6.2,-15.69l0,0q2.14,-1.91 4.54,-2.67q2.41,-0.75 6.46,-0.75l0,0z"/>
      <path id="svg_16" data-glyph-descender="-8.1639" data-glyph-ascender="49.7361" data-glyph-h="57.9" data-glyph-w="13.4907" stroke-width="0.096" stroke="#246fdd" fill="#246fdd" transform="skewX(-14)" d="m185.86808,205.0261l13.49,0l0,6.95l-13.49,0l0,-6.95z"/>
      <path id="svg_17" data-glyph-descender="-8.1639" data-glyph-ascender="49.7361" data-glyph-h="57.9" data-glyph-w="40.7037" stroke-width="0.096" stroke="#246fdd" fill="#246fdd" transform="skewX(-14)" d="m202.82878,184.8161l8.17,0l0,23.16q0,2.78 0.46,4.31q0.46,1.54 1.56,2.64l0,0q2.44,2.37 6.78,2.37l0,0q2.78,0 4.83,-0.95q2.06,-0.96 2.87,-2.58l0,0q0.81,-1.62 0.81,-5.79l0,0l0,-23.16l8.22,0l0,22.76q0,4.51 -0.95,7.44q-0.96,2.92 -2.93,4.71l0,0q-4.57,4 -12.97,4l0,0q-8.97,0 -13.08,-3.94l0,0q-2.14,-2.02 -2.96,-4.54q-0.81,-2.52 -0.81,-7.1l0,0l0,-23.33z"/>
      <path id="svg_18" data-glyph-descender="-8.1639" data-glyph-ascender="49.7361" data-glyph-h="57.9" data-glyph-w="39.6615" stroke-width="0.096" stroke="#246fdd" fill="#246fdd" transform="skewX(-14)" d="m265.42248,209.9461l-13.2,0l0,13.49l-8.22,0l0,-38.62l19.28,0q5.27,0 7.52,0.75l0,0q3.83,1.28 6.03,5.27l0,0q1.62,3.01 1.62,6.55l0,0q0,2.95 -1.07,5.58q-1.07,2.64 -2.99,4.32l0,0q-1.73,1.5 -3.67,2.08q-1.94,0.58 -5.3,0.58l0,0zm-13.2,-18.24l0,11.35l11.17,0q3.01,0 4.23,-0.93l0,0q1.8,-1.44 1.8,-5.03l0,0q0,-3.88 -2.73,-4.98l0,0q-0.98,-0.41 -3.12,-0.41l0,0l-11.35,0z"/>
     </g>
    </svg>
   </g>
  </g>
  <g transform="translate(67.1978 263.782) scale(1 1)" id="shape_KGTd7uuhMV">
   <g id="svg_4">
    <svg id="svg_19" data-parent="shape_KGTd7uuhMV" viewBox="0 0 767.6822076730879 177.58749999999998" height="177.5875" width="767.68221" version="1.1" xmlns:xlink="http://www.w3.org/1999/xlink" xmlns="http://www.w3.org/2000/svg">
     <rect id="svg_20" y="76.79375" x="24.96" height="24" width="667.84221" fill="rgba(0,0,0,0)"/>
     <g id="svg_21" data-width="667.53044">
      <path id="svg_22" data-glyph-descender="-5.09438" data-glyph-ascender="20.91375" data-glyph-h="26.00812" data-glyph-w="14.51531" stroke-width="0.042" stroke="rgb(36, 111, 221)" fill="rgb(36, 111, 221)" d="m6.33,92.91375l0,-15.54l-5.6,0l0,-1.86l13.05,0l0,1.86l-5.59,0l0,15.54l-1.86,0z"/>
      <path id="svg_23" data-glyph-descender="-5.09438" data-glyph-ascender="20.91375" data-glyph-h="26.00812" data-glyph-w="15.49031" stroke-width="0.042" stroke="rgb(36, 111, 221)" fill="rgb(36, 111, 221)" d="m26.92531,85.15375l-9.33,0l0,7.76l-1.86,0l0,-17.4l1.86,0l0,7.78l9.33,0l0,-7.78l1.86,0l0,17.4l-1.86,0l0,-7.76z"/>
      <path id="svg_24" data-glyph-descender="-5.09438" data-glyph-ascender="20.91375" data-glyph-h="26.00812" data-glyph-w="14.38125" stroke-width="0.042" stroke="rgb(36, 111, 221)" fill="rgb(36, 111, 221)" d="m33.08562,77.37375l0,5.92l10.57,0l0,1.86l-10.57,0l0,5.9l10.57,0l0,1.86l-12.43,0l0,-17.4l12.43,0l0,1.86l-10.57,0z"/>
      <path id="svg_25" data-glyph-descender="-5.09438" data-glyph-ascender="20.91375" data-glyph-h="26.00812" data-glyph-w="16.11188" stroke-width="0.042" stroke="rgb(36, 111, 221)" fill="rgb(36, 111, 221)" d="m57.41688,89.59375l0,-14.08l1.86,0l0,17.4l-1.78,0l-10.03,-14.07l0,14.07l-1.86,0l0,-17.4l1.78,0l10.03,14.08z"/>
      <path id="svg_26" data-glyph-descender="-2.9952" data-glyph-ascender="21.9648" data-glyph-h="24.96" data-glyph-w="9.93408" stroke-width="0.042" stroke="rgb(36, 111, 221)" fill="rgb(36, 111, 221)"/>
      <path id="svg_27" data-glyph-descender="-5.09438" data-glyph-ascender="20.91375" data-glyph-h="26.00812" data-glyph-w="15.31969" stroke-width="0.042" stroke="rgb(36, 111, 221)" fill="rgb(36, 111, 221)" d="m79.42283,77.37375l-5.91,0l0,5.6l5.91,0q1.16,0 1.98,-0.82l0,0q0.82,-0.81 0.82,-1.97l0,0q0,-1.17 -0.82,-1.99l0,0q-0.82,-0.82 -1.98,-0.82l0,0zm0.63,7.46l-6.54,0l0,6.22l6.54,0q1.28,0 2.19,-0.9l0,0q0.91,-0.92 0.91,-2.21l0,0q0,-1.28 -0.91,-2.19l0,0q-0.91,-0.92 -2.19,-0.92l0,0zm0,8.08l-8.4,0l0,-17.4l7.77,0q1.93,0 3.3,1.37l0,0q1.36,1.36 1.36,3.3l0,0q0,1.92 -1.36,3.29l0,0q-0.09,0.08 -0.18,0.16l0,0q0.54,0.33 1.02,0.8l0,0q1.46,1.45 1.46,3.51l0,0q0,2.06 -1.46,3.52l0,0q-1.45,1.45 -3.51,1.45l0,0z"/>
      <path id="svg_28" data-glyph-descender="-5.09438" data-glyph-ascender="20.91375" data-glyph-h="26.00812" data-glyph-w="15.62438" stroke-width="0.042" stroke="rgb(36, 111, 221)" fill="rgb(36, 111, 221)" d="m94.40252,86.08375l-5.57,0l0,6.83l-1.86,0l0,-17.4l8.4,0q2.18,0 3.73,1.55l0,0q1.54,1.55 1.54,3.74l0,0q0,2.18 -1.54,3.73l0,0q-1.08,1.07 -2.47,1.4l0,0l5.26,6.98l-2.33,0l-5.16,-6.83zm0.97,-8.71l-6.54,0l0,6.84l6.54,0q1.41,0 2.41,-1l0,0q1,-1 1,-2.41l0,0q0,-1.43 -1,-2.43l0,0q-1,-1 -2.41,-1l0,0z"/>
      <path id="svg_29" data-glyph-descender="-5.09438" data-glyph-ascender="20.91375" data-glyph-h="26.00812" data-glyph-w="16.11188" stroke-width="0.042" stroke="rgb(36, 111, 221)" fill="rgb(36, 111, 221)" d="m109.43689,93.23375q2.84,0 4.83,-1.64l0,0q2,-1.64 2,-3.95l0,0l0,-12.13l-1.86,0l0,12.13q0,1.54 -1.45,2.63l0,0q-1.46,1.1 -3.52,1.1l0,0q-2.06,0 -3.51,-1.1l0,0q-1.47,-1.09 -1.47,-2.63l0,0l0,-12.13l-1.86,0l0,12.13q0,2.31 2,3.95l0,0q2.01,1.64 4.84,1.64l0,0z"/>
      <path id="svg_30" data-glyph-descender="-5.09438" data-glyph-ascender="20.91375" data-glyph-h="26.00812" data-glyph-w="15.75844" stroke-width="0.042" stroke="rgb(36, 111, 221)" fill="rgb(36, 111, 221)" d="m125.37877,77.07375q1.96,0 3.31,0.95l0,0q1.34,0.95 1.34,2.3l0,0l1.87,0q0,-2.13 -1.87,-3.62l0,0q-1.89,-1.51 -4.65,-1.51l0,0q-2.78,0 -4.62,1.31l0,0q-1.92,1.35 -1.92,3.52l0,0q0,2.31 1.84,3.45l0,0q1.25,0.75 4.07,1.24l0,0q3.18,0.56 4.06,0.93l0,0q1.84,0.75 1.84,2.46l0,0q0,1.47 -1.55,2.39l0,0q-1.47,0.88 -3.72,0.88l0,0q-2.31,0 -3.82,-1.19l0,0q-1.47,-1.15 -1.47,-2.86l0,0l-1.87,0q0,2.49 2,4.18l0,0q2.05,1.73 5.16,1.73l0,0q3.07,0 5.04,-1.34l0,0q2.1,-1.41 2.1,-3.79l0,0q0,-2.39 -1.84,-3.57l0,0q-1.27,-0.82 -4.06,-1.32l0,0q-3.3,-0.59 -4.06,-0.89l0,0q-1.85,-0.72 -1.85,-2.3l0,0q0,-1.37 1.36,-2.18l0,0q1.31,-0.77 3.31,-0.77l0,0z"/>
      <path id="svg_31" data-glyph-descender="-5.09438" data-glyph-ascender="20.91375" data-glyph-h="26.00812" data-glyph-w="15.49031" stroke-width="0.042" stroke="rgb(36, 111, 221)" fill="rgb(36, 111, 221)" d="m145.65721,85.15375l-9.33,0l0,7.76l-1.86,0l0,-17.4l1.86,0l0,7.78l9.33,0l0,-7.78l1.86,0l0,17.4l-1.86,0l0,-7.76z"/>
      <path id="svg_32" data-glyph-descender="-2.9952" data-glyph-ascender="21.9648" data-glyph-h="24.96" data-glyph-w="9.93408" stroke-width="0.042" stroke="rgb(36, 111, 221)" fill="rgb(36, 111, 221)"/>
      <path id="svg_33" data-glyph-descender="-5.09438" data-glyph-ascender="20.91375" data-glyph-h="26.00812" data-glyph-w="14.51531" stroke-width="0.042" stroke="rgb(36, 111, 221)" fill="rgb(36, 111, 221)" d="m165.0016,92.91375l0,-15.54l-5.6,0l0,-1.86l13.05,0l0,1.86l-5.59,0l0,15.54l-1.86,0z"/>
      <path id="svg_34" data-glyph-descender="-5.09438" data-glyph-ascender="20.91375" data-glyph-h="26.00812" data-glyph-w="15.49031" stroke-width="0.042" stroke="rgb(36, 111, 221)" fill="rgb(36, 111, 221)" d="m185.5969,85.15375l-9.33,0l0,7.76l-1.86,0l0,-17.4l1.86,0l0,7.78l9.33,0l0,-7.78l1.86,0l0,17.4l-1.86,0l0,-7.76z"/>
      <path id="svg_35" data-glyph-descender="-5.09438" data-glyph-ascender="20.91375" data-glyph-h="26.00812" data-glyph-w="14.38125" stroke-width="0.042" stroke="rgb(36, 111, 221)" fill="rgb(36, 111, 221)" d="m191.75722,77.37375l0,5.92l10.57,0l0,1.86l-10.57,0l0,5.9l10.57,0l0,1.86l-12.43,0l0,-17.4l12.43,0l0,1.86l-10.57,0z"/>
      <path id="svg_36" data-glyph-descender="-2.9952" data-glyph-ascender="21.9648" data-glyph-h="24.96" data-glyph-w="9.93408" stroke-width="0.042" stroke="rgb(36, 111, 221)" fill="rgb(36, 111, 221)"/>
      <path id="svg_37" data-glyph-descender="-5.09438" data-glyph-ascender="20.91375" data-glyph-h="26.00812" data-glyph-w="19.48781" stroke-width="0.042" stroke="rgb(36, 111, 221)" fill="rgb(36, 111, 221)" d="m223.96255,84.43375l4.31,4.32q1.61,-1.94 1.61,-4.54l0,0q0,-2.96 -2.09,-5.06l0,0q-2.1,-2.08 -5.06,-2.08l0,0q-2.96,0 -5.06,2.08l0,0q-2.08,2.1 -2.08,5.06l0,0q0,2.96 2.08,5.06l0,0q2.1,2.1 5.06,2.1l0,0q2.36,0 4.18,-1.34l0,0l-4.27,-4.28l1.32,-1.32zm6.73,9.37l-2.45,-2.45q-2.37,1.88 -5.51,1.88l0,0q-3.73,0 -6.38,-2.64l0,0q-2.63,-2.64 -2.63,-6.38l0,0q0,-3.73 2.63,-6.37l0,0q2.65,-2.65 6.38,-2.65l0,0q3.74,0 6.37,2.65l0,0q2.65,2.64 2.65,6.37l0,0q0,3.38 -2.16,5.85l0,0l2.41,2.42l-1.31,1.32z"/>
      <path id="svg_38" data-glyph-descender="-5.09438" data-glyph-ascender="20.91375" data-glyph-h="26.00812" data-glyph-w="16.11188" stroke-width="0.042" stroke="rgb(36, 111, 221)" fill="rgb(36, 111, 221)" d="m240.54036,93.23375q2.84,0 4.83,-1.64l0,0q2,-1.64 2,-3.95l0,0l0,-12.13l-1.86,0l0,12.13q0,1.54 -1.45,2.63l0,0q-1.46,1.1 -3.52,1.1l0,0q-2.06,0 -3.51,-1.1l0,0q-1.47,-1.09 -1.47,-2.63l0,0l0,-12.13l-1.86,0l0,12.13q0,2.31 2,3.95l0,0q2.01,1.64 4.84,1.64l0,0z"/>
      <path id="svg_39" data-glyph-descender="-5.09438" data-glyph-ascender="20.91375" data-glyph-h="26.00812" data-glyph-w="14.38125" stroke-width="0.042" stroke="rgb(36, 111, 221)" fill="rgb(36, 111, 221)" d="m251.67224,77.37375l0,5.92l10.57,0l0,1.86l-10.57,0l0,5.9l10.57,0l0,1.86l-12.43,0l0,-17.4l12.43,0l0,1.86l-10.57,0z"/>
      <path id="svg_40" data-glyph-descender="-5.09438" data-glyph-ascender="20.91375" data-glyph-h="26.00812" data-glyph-w="15.75844" stroke-width="0.042" stroke="rgb(36, 111, 221)" fill="rgb(36, 111, 221)" d="m270.86348,77.07375q1.96,0 3.31,0.95l0,0q1.34,0.95 1.34,2.3l0,0l1.87,0q0,-2.13 -1.87,-3.62l0,0q-1.89,-1.51 -4.65,-1.51l0,0q-2.78,0 -4.62,1.31l0,0q-1.92,1.35 -1.92,3.52l0,0q0,2.31 1.84,3.45l0,0q1.25,0.75 4.07,1.24l0,0q3.18,0.56 4.06,0.93l0,0q1.84,0.75 1.84,2.46l0,0q0,1.47 -1.55,2.39l0,0q-1.47,0.88 -3.72,0.88l0,0q-2.31,0 -3.82,-1.19l0,0q-1.47,-1.15 -1.47,-2.86l0,0l-1.87,0q0,2.49 2,4.18l0,0q2.05,1.73 5.16,1.73l0,0q3.07,0 5.04,-1.34l0,0q2.1,-1.41 2.1,-3.79l0,0q0,-2.39 -1.84,-3.57l0,0q-1.27,-0.82 -4.06,-1.32l0,0q-3.3,-0.59 -4.06,-0.89l0,0q-1.85,-0.72 -1.85,-2.3l0,0q0,-1.37 1.36,-2.18l0,0q1.31,-0.77 3.31,-0.77l0,0z"/>
      <path id="svg_41" data-glyph-descender="-5.09438" data-glyph-ascender="20.91375" data-glyph-h="26.00812" data-glyph-w="14.51531" stroke-width="0.042" stroke="rgb(36, 111, 221)" fill="rgb(36, 111, 221)" d="m285.06193,92.91375l0,-15.54l-5.6,0l0,-1.86l13.05,0l0,1.86l-5.59,0l0,15.54l-1.86,0z"/>
      <path id="svg_42" data-glyph-descender="-5.09438" data-glyph-ascender="20.91375" data-glyph-h="26.00812" data-glyph-w="4.30219" stroke-width="0.042" stroke="rgb(36, 111, 221)" fill="rgb(36, 111, 221)" d="m296.32725,92.91375l0,-17.4l-1.86,0l0,17.4l1.86,0z"/>
      <path id="svg_43" data-glyph-descender="-5.09438" data-glyph-ascender="20.91375" data-glyph-h="26.00812" data-glyph-w="19.48781" stroke-width="0.042" stroke="rgb(36, 111, 221)" fill="rgb(36, 111, 221)" d="m307.29944,75.19375q3.73,0 6.37,2.65l0,0q2.64,2.64 2.64,6.37l0,0q0,3.74 -2.64,6.38l0,0q-2.64,2.64 -6.37,2.64l0,0q-3.74,0 -6.37,-2.64l0,0q-2.65,-2.64 -2.65,-6.38l0,0q0,-3.73 2.65,-6.37l0,0q2.63,-2.65 6.37,-2.65l0,0zm0,1.88l0,0q-2.96,0 -5.06,2.08l0,0q-2.09,2.1 -2.09,5.06l0,0q0,2.96 2.09,5.06l0,0q2.1,2.1 5.06,2.1l0,0q2.96,0 5.06,-2.1l0,0q2.08,-2.1 2.08,-5.06l0,0q0,-2.96 -2.08,-5.06l0,0q-2.1,-2.08 -5.06,-2.08z"/>
      <path id="svg_44" data-glyph-descender="-5.09438" data-glyph-ascender="20.91375" data-glyph-h="26.00812" data-glyph-w="16.11188" stroke-width="0.042" stroke="rgb(36, 111, 221)" fill="rgb(36, 111, 221)" d="m330.06723,89.59375l0,-14.08l1.86,0l0,17.4l-1.78,0l-10.03,-14.07l0,14.07l-1.86,0l0,-17.4l1.78,0l10.03,14.08z"/>
      <path id="svg_45" data-glyph-descender="-5.09438" data-glyph-ascender="20.91375" data-glyph-h="26.00812" data-glyph-w="15.75844" stroke-width="0.042" stroke="rgb(36, 111, 221)" fill="rgb(36, 111, 221)" d="m341.03911,77.07375q1.96,0 3.31,0.95l0,0q1.34,0.95 1.34,2.3l0,0l1.87,0q0,-2.13 -1.87,-3.62l0,0q-1.89,-1.51 -4.65,-1.51l0,0q-2.78,0 -4.62,1.31l0,0q-1.92,1.35 -1.92,3.52l0,0q0,2.31 1.84,3.45l0,0q1.25,0.75 4.07,1.24l0,0q3.18,0.56 4.06,0.93l0,0q1.84,0.75 1.84,2.46l0,0q0,1.47 -1.55,2.39l0,0q-1.47,0.88 -3.72,0.88l0,0q-2.31,0 -3.82,-1.19l0,0q-1.47,-1.15 -1.47,-2.86l0,0l-1.87,0q0,2.49 2,4.18l0,0q2.05,1.73 5.16,1.73l0,0q3.07,0 5.04,-1.34l0,0q2.1,-1.41 2.1,-3.79l0,0q0,-2.39 -1.84,-3.57l0,0q-1.27,-0.82 -4.06,-1.32l0,0q-3.3,-0.59 -4.06,-0.89l0,0q-1.85,-0.72 -1.85,-2.3l0,0q0,-1.37 1.36,-2.18l0,0q1.31,-0.77 3.31,-0.77l0,0z"/>
      <path id="svg_46" data-glyph-descender="-2.9952" data-glyph-ascender="21.9648" data-glyph-h="24.96" data-glyph-w="9.93408" stroke-width="0.042" stroke="rgb(36, 111, 221)" fill="rgb(36, 111, 221)"/>
      <path id="svg_47" data-glyph-descender="-5.09438" data-glyph-ascender="20.91375" data-glyph-h="26.00812" data-glyph-w="17.89125" stroke-width="0.042" stroke="rgb(36, 111, 221)" fill="rgb(36, 111, 221)" d="m372.23164,87.94375l-8.89,0l-2.21,4.97l-2.05,0l7.74,-17.4l1.93,0l7.74,17.4l-2.04,0l-2.22,-4.97zm-4.44,-10l-3.62,8.14l7.24,0l-3.62,-8.14z"/>
      <path id="svg_48" data-glyph-descender="-5.09438" data-glyph-ascender="20.91375" data-glyph-h="26.00812" data-glyph-w="16.11188" stroke-width="0.042" stroke="rgb(36, 111, 221)" fill="rgb(36, 111, 221)" d="m389.76288,89.59375l0,-14.08l1.86,0l0,17.4l-1.78,0l-10.03,-14.07l0,14.07l-1.86,0l0,-17.4l1.78,0l10.03,14.08z"/>
      <path id="svg_49" data-glyph-descender="-5.09438" data-glyph-ascender="20.91375" data-glyph-h="26.00812" data-glyph-w="16.8675" stroke-width="0.042" stroke="rgb(36, 111, 221)" fill="rgb(36, 111, 221)" d="m401.21476,92.91375l-7.15,0l0,-17.4l7.15,0q3.22,0 5.5,2.55l0,0q2.27,2.54 2.27,6.15l0,0q0,3.61 -2.27,6.16l0,0q-2.28,2.54 -5.5,2.54l0,0zm0,-15.54l-5.29,0l0,13.68l5.29,0q2.45,0 4.17,-2l0,0q1.73,-2 1.73,-4.84l0,0q0,-2.83 -1.73,-4.84l0,0q-1.72,-2 -4.17,-2l0,0z"/>
      <path id="svg_50" data-glyph-descender="-2.9952" data-glyph-ascender="21.9648" data-glyph-h="24.96" data-glyph-w="9.93408" stroke-width="0.042" stroke="rgb(36, 111, 221)" fill="rgb(36, 111, 221)"/>
      <path id="svg_51" data-glyph-descender="-5.09438" data-glyph-ascender="20.91375" data-glyph-h="26.00812" data-glyph-w="14.51531" stroke-width="0.042" stroke="rgb(36, 111, 221)" fill="rgb(36, 111, 221)" d="m425.97633,92.91375l0,-15.54l-5.6,0l0,-1.86l13.05,0l0,1.86l-5.59,0l0,15.54l-1.86,0z"/>
      <path id="svg_52" data-glyph-descender="-5.09438" data-glyph-ascender="20.91375" data-glyph-h="26.00812" data-glyph-w="15.49031" stroke-width="0.042" stroke="rgb(36, 111, 221)" fill="rgb(36, 111, 221)" d="m446.57165,85.15375l-9.33,0l0,7.76l-1.86,0l0,-17.4l1.86,0l0,7.78l9.33,0l0,-7.78l1.86,0l0,17.4l-1.86,0l0,-7.76z"/>
      <path id="svg_53" data-glyph-descender="-5.09438" data-glyph-ascender="20.91375" data-glyph-h="26.00812" data-glyph-w="14.38125" stroke-width="0.042" stroke="rgb(36, 111, 221)" fill="rgb(36, 111, 221)" d="m452.73198,77.37375l0,5.92l10.57,0l0,1.86l-10.57,0l0,5.9l10.57,0l0,1.86l-12.43,0l0,-17.4l12.43,0l0,1.86l-10.57,0z"/>
      <path id="svg_54" data-glyph-descender="-5.09438" data-glyph-ascender="20.91375" data-glyph-h="26.00812" data-glyph-w="16.11188" stroke-width="0.042" stroke="rgb(36, 111, 221)" fill="rgb(36, 111, 221)" d="m477.0632,89.59375l0,-14.08l1.86,0l0,17.4l-1.78,0l-10.03,-14.07l0,14.07l-1.86,0l0,-17.4l1.78,0l10.03,14.08z"/>
      <path id="svg_55" data-glyph-descender="-2.9952" data-glyph-ascender="21.9648" data-glyph-h="24.96" data-glyph-w="9.93408" stroke-width="0.042" stroke="rgb(36, 111, 221)" fill="rgb(36, 111, 221)"/>
      <path id="svg_56" data-glyph-descender="-5.09438" data-glyph-ascender="20.91375" data-glyph-h="26.00812" data-glyph-w="14.51531" stroke-width="0.042" stroke="rgb(36, 111, 221)" fill="rgb(36, 111, 221)" d="m496.40916,92.91375l0,-15.54l-5.6,0l0,-1.86l13.05,0l0,1.86l-5.59,0l0,15.54l-1.86,0z"/>
      <path id="svg_57" data-glyph-descender="-5.09438" data-glyph-ascender="20.91375" data-glyph-h="26.00812" data-glyph-w="15.49031" stroke-width="0.042" stroke="rgb(36, 111, 221)" fill="rgb(36, 111, 221)" d="m517.00448,85.15375l-9.33,0l0,7.76l-1.86,0l0,-17.4l1.86,0l0,7.78l9.33,0l0,-7.78l1.86,0l0,17.4l-1.86,0l0,-7.76z"/>
      <path id="svg_58" data-glyph-descender="-5.09438" data-glyph-ascender="20.91375" data-glyph-h="26.00812" data-glyph-w="14.38125" stroke-width="0.042" stroke="rgb(36, 111, 221)" fill="rgb(36, 111, 221)" d="m523.16478,77.37375l0,5.92l10.57,0l0,1.86l-10.57,0l0,5.9l10.57,0l0,1.86l-12.43,0l0,-17.4l12.43,0l0,1.86l-10.57,0z"/>
      <path id="svg_59" data-glyph-descender="-2.9952" data-glyph-ascender="21.9648" data-glyph-h="24.96" data-glyph-w="9.93408" stroke-width="0.042" stroke="rgb(36, 111, 221)" fill="rgb(36, 111, 221)"/>
      <path id="svg_60" data-glyph-descender="-5.09438" data-glyph-ascender="20.91375" data-glyph-h="26.00812" data-glyph-w="4.30219" stroke-width="0.042" stroke="rgb(36, 111, 221)" fill="rgb(36, 111, 221)" d="m572.44015,92.91375l0,-17.4l-1.86,0l0,17.4l1.86,0z"/>
      <path id="svg_61" data-glyph-descender="-5.09438" data-glyph-ascender="20.91375" data-glyph-h="26.00812" data-glyph-w="16.11188" stroke-width="0.042" stroke="rgb(36, 111, 221)" fill="rgb(36, 111, 221)" d="m586.69233,89.59375l0,-14.08l1.86,0l0,17.4l-1.78,0l-10.03,-14.07l0,14.07l-1.86,0l0,-17.4l1.78,0l10.03,14.08z"/>
      <path id="svg_62" data-glyph-descender="-5.09438" data-glyph-ascender="20.91375" data-glyph-h="26.00812" data-glyph-w="14.51531" stroke-width="0.042" stroke="rgb(36, 111, 221)" fill="rgb(36, 111, 221)" d="m596.10421,92.91375l0,-15.54l-5.6,0l0,-1.86l13.05,0l0,1.86l-5.59,0l0,15.54l-1.86,0z"/>
      <path id="svg_63" data-glyph-descender="-5.09438" data-glyph-ascender="20.91375" data-glyph-h="26.00812" data-glyph-w="14.38125" stroke-width="0.042" stroke="rgb(36, 111, 221)" fill="rgb(36, 111, 221)" d="m607.36947,77.37375l0,5.92l10.57,0l0,1.86l-10.57,0l0,5.9l10.57,0l0,1.86l-12.43,0l0,-17.4l12.43,0l0,1.86l-10.57,0z"/>
      <path id="svg_64" data-glyph-descender="-5.09438" data-glyph-ascender="20.91375" data-glyph-h="26.00812" data-glyph-w="15.62438" stroke-width="0.042" stroke="rgb(36, 111, 221)" fill="rgb(36, 111, 221)" d="m627.32075,86.08375l-5.57,0l0,6.83l-1.86,0l0,-17.4l8.4,0q2.18,0 3.73,1.55l0,0q1.54,1.55 1.54,3.74l0,0q0,2.18 -1.54,3.73l0,0q-1.08,1.07 -2.47,1.4l0,0l5.26,6.98l-2.33,0l-5.16,-6.83zm0.97,-8.71l-6.54,0l0,6.84l6.54,0q1.41,0 2.41,-1l0,0q1,-1 1,-2.41l0,0q0,-1.43 -1,-2.43l0,0q-1,-1 -2.41,-1l0,0z"/>
      <path id="svg_65" data-glyph-descender="-5.09438" data-glyph-ascender="20.91375" data-glyph-h="26.00812" data-glyph-w="17.89125" stroke-width="0.042" stroke="rgb(36, 111, 221)" fill="rgb(36, 111, 221)" d="m651.94514,75.51375l-2.04,0l-6.66,15.05l-6.67,-15.05l-2.04,0l7.71,17.4l2,0l7.7,-17.4z"/>
      <path id="svg_66" data-glyph-descender="-5.09438" data-glyph-ascender="20.91375" data-glyph-h="26.00812" data-glyph-w="4.30219" stroke-width="0.042" stroke="rgb(36, 111, 221)" fill="rgb(36, 111, 221)" d="m655.26638,92.91375l0,-17.4l-1.86,0l0,17.4l1.86,0z"/>
      <path id="svg_67" data-glyph-descender="-5.09438" data-glyph-ascender="20.91375" data-glyph-h="26.00812" data-glyph-w="14.38125" stroke-width="0.042" stroke="rgb(36, 111, 221)" fill="rgb(36, 111, 221)" d="m659.56856,77.37375l0,5.92l10.57,0l0,1.86l-10.57,0l0,5.9l10.57,0l0,1.86l-12.43,0l0,-17.4l12.43,0l0,1.86l-10.57,0z"/>
      <path id="svg_68" data-glyph-descender="-5.09438" data-glyph-ascender="20.91375" data-glyph-h="26.00812" data-glyph-w="21.62063" stroke-width="0.042" stroke="rgb(36, 111, 221)" fill="rgb(36, 111, 221)" d="m682.62979,75.51375l-1.9,0l-3.74,13.83l-3.94,-13.83l-1.94,0l4.96,17.4l1.89,0l3.72,-13.77l3.73,13.77l1.89,0l4.95,-17.4l-1.94,0l-3.94,13.83l-3.74,-13.83z"/>
     </g>
    </svg>
   </g>
  </g>
  <g id="rectBox">
   <rect stroke="transparent" fill="rgba(0,0,0,0)" transform="translate(40 234.468) scale(1 1)" height="99.76271" width="159.7231" id="rect_shape_AjwXCJgVSQ"/>
   <rect stroke="transparent" fill="rgba(0,0,0,0)" transform="translate(80.458 272.427) scale(1 1)" height="57" width="166.71098" id="rect_shape_W7YDZ35Q8m"/>
   <rect stroke="transparent" fill="rgba(0,0,0,0)" transform="translate(92.1578 340.576) scale(1 1)" height="24" width="667.84221" id="rect_shape_KGTd7uuhMV"/>
  </g>
 </g>
</svg>